<svg width="1024" height="1024" viewBox="0 0 1024 1024" fill="none" xmlns="http://www.w3.org/2000/svg">
<rect width="1024" height="1024" rx="230" fill="white"/>
<path d="M358.863 470.915C411.154 427.962 480.252 394.346 554.953 371.936C627.786 351.393 715.56 340.188 792.128 358.863C709.957 325.248 599.773 323.381 493.325 351.393C383.141 379.406 289.765 431.697 230.004 508.265C274.825 426.094 373.803 360.731 500.795 327.116C573.628 308.44 680.077 299.103 764.115 319.645C691.282 284.162 579.231 272.958 455.974 304.705C343.923 332.718 241.209 386.876 188.919 455.974C235.607 373.803 343.923 314.043 454.107 286.03C543.748 263.62 635.256 261.752 704.355 276.693C625.919 243.077 523.205 237.475 407.419 259.885C209.461 300.97 80.6026 429.829 101.145 538.145C110.483 592.304 179.581 637.124 252.414 653.932C248.679 590.436 287.897 523.205 358.863 470.915Z" fill="#004190"/>
<path d="M663.269 553.085C610.979 596.038 541.88 629.654 467.18 652.064C394.346 672.607 306.573 683.812 230.004 665.136C312.175 698.752 422.359 700.62 528.808 672.607C638.991 644.594 732.368 592.303 792.128 515.735C747.308 597.906 648.329 663.269 523.205 696.885C450.372 715.56 343.923 724.897 259.885 704.355C332.718 739.837 444.769 751.043 568.026 719.295C680.077 691.282 782.791 637.124 835.081 568.025C788.393 650.196 680.077 709.957 569.893 737.97C480.252 760.38 388.744 762.248 319.645 747.308C398.081 780.923 500.795 786.525 616.581 764.115C814.538 723.03 943.397 594.171 922.855 485.855C913.517 431.697 844.419 386.876 771.585 370.068C775.32 431.697 734.235 500.795 663.269 553.085Z" fill="#E60012"/>
</svg>
